# xmcd
#
# Track frame offsets:
#	150
#	21409
#	37151
#	46959
#	61599
#	74798
#	86428
#	98393
#	110488
#	122788
#	134880
#	150081
#
# Disc length: 2177 seconds
#
# Revision: 1
# Processed by: cddbd v1.5.2PL0 Copyright (c) Steve Scherf et al.
# Submitted via: audiograbber 1.83.01
#
DISCID=a0087f0c
DTITLE=Various Artist - Trucker Special Edition - Volume 2
DYEAR=1900
DGENRE=
TTITLE0=I Can't Stop Loving You
TTITLE1=I'm Leaving It Up To You
TTITLE2=Three Ways
TTITLE3=More And More
TTITLE4=Release Me
TTITLE5=Together Again
TTITLE6=Give My Love To Rose
TTITLE7=A Dear John Letter
TTITLE8=Amigo's Guitar
TTITLE9=Pick Me Up On Your Way Down
TTITLE10=It's Hard To Be Humble
TTITLE11=Bible For A Road
EXTD=
EXTT0=
EXTT1=
EXTT2=
EXTT3=
EXTT4=
EXTT5=
EXTT6=
EXTT7=
EXTT8=
EXTT9=
EXTT10=
EXTT11=
PLAYORDER=
